<?xml version="1.0" standalone="no"?>
<!DOCTYPE svg PUBLIC "-//W3C//DTD SVG 1.1//EN"
  "http://www.w3.org/Graphics/SVG/1.1/DTD/svg11.dtd">
<svg width="102mm" height="145.99999999999997mm" viewBox="-210.5 -71.99999999999999 102 145.99999999999997" xmlns="http://www.w3.org/2000/svg" version="1.1">
	<title>svgOutput</title>
	<desc>made with tinkercad</desc>
<path d="M -209.5 72.99999999999999 L -209.5 -70.99999999999999 L -189.5030059814453 -70.99999999999999 L -169.5 -70.99999999999999 L -164.5 -70.99999999999999 L -144.4980010986328 -70.99999999999999 L -109.5 -70.99999999999999 L -109.5 72.99999999999999 L -144.4980010986328 72.99999999999999 L -164.5 72.99999999999999 L -169.5 72.99999999999999 L -189.5030059814453 72.99999999999999 L -209.5 72.99999999999999 M -144.4980010986328 -11.503000259399412 L -164.5 -11.503000259399412 L -164.5 8.499999999999998 L -144.4980010986328 8.499999999999998 L -144.4980010986328 -11.503000259399412 M -144.4980010986328 13.499999999999996 L -164.5 13.499999999999996 L -164.5 33.502998352050774 L -144.4980010986328 33.502998352050774 L -144.4980010986328 13.499999999999996 M -169.5 -11.503000259399412 L -189.5030059814453 -11.503000259399412 L -189.5030059814453 8.499999999999998 L -169.5 8.499999999999998 L -169.5 -11.503000259399412 M -169.5 13.499999999999996 L -189.5030059814453 13.499999999999996 L -189.5030059814453 33.502998352050774 L -169.5 33.502998352050774 L -169.5 13.499999999999996 z" fill="none" stroke="rgb(255,0,0)" stroke-width="0.001mm" />
</svg>